<mxfile host="app.diagrams.net" agent="Mozilla/5.0 (X11; Linux x86_64) AppleWebKit/537.36 (KHTML, like Gecko) Chrome/134.0.0.0 Safari/537.36" version="26.1.1">
  <diagram name="Page-1" id="929967ad-93f9-6ef4-fab6-5d389245f69c">
    <mxGraphModel dx="1368" dy="754" grid="1" gridSize="10" guides="1" tooltips="1" connect="1" arrows="1" fold="1" page="1" pageScale="1.5" pageWidth="1169" pageHeight="826" background="none" math="0" shadow="0">
      <root>
        <mxCell id="0" style=";html=1;" />
        <mxCell id="1" style=";html=1;" parent="0" />
        <mxCell id="exYCUITcQJXmySzrB93R-5" value="" style="edgeStyle=orthogonalEdgeStyle;rounded=0;orthogonalLoop=1;jettySize=auto;html=1;startArrow=classic;startFill=1;" edge="1" parent="1" source="exYCUITcQJXmySzrB93R-1" target="exYCUITcQJXmySzrB93R-4">
          <mxGeometry relative="1" as="geometry">
            <Array as="points">
              <mxPoint x="540" y="370" />
            </Array>
          </mxGeometry>
        </mxCell>
        <mxCell id="exYCUITcQJXmySzrB93R-24" value="connects with" style="edgeLabel;html=1;align=center;verticalAlign=middle;resizable=0;points=[];" vertex="1" connectable="0" parent="exYCUITcQJXmySzrB93R-5">
          <mxGeometry x="0.4353" relative="1" as="geometry">
            <mxPoint x="-7" y="-10" as="offset" />
          </mxGeometry>
        </mxCell>
        <mxCell id="exYCUITcQJXmySzrB93R-13" value="" style="edgeStyle=orthogonalEdgeStyle;rounded=0;orthogonalLoop=1;jettySize=auto;html=1;" edge="1" parent="1" source="exYCUITcQJXmySzrB93R-1" target="exYCUITcQJXmySzrB93R-12">
          <mxGeometry relative="1" as="geometry">
            <Array as="points">
              <mxPoint x="510" y="580" />
              <mxPoint x="510" y="580" />
            </Array>
          </mxGeometry>
        </mxCell>
        <mxCell id="exYCUITcQJXmySzrB93R-42" value="connects&lt;br&gt;wallet" style="edgeLabel;html=1;align=center;verticalAlign=middle;resizable=0;points=[];" vertex="1" connectable="0" parent="exYCUITcQJXmySzrB93R-13">
          <mxGeometry x="-0.1111" y="-1" relative="1" as="geometry">
            <mxPoint as="offset" />
          </mxGeometry>
        </mxCell>
        <mxCell id="exYCUITcQJXmySzrB93R-32" style="edgeStyle=orthogonalEdgeStyle;rounded=0;orthogonalLoop=1;jettySize=auto;html=1;exitX=1;exitY=0.25;exitDx=0;exitDy=0;entryX=0;entryY=0.25;entryDx=0;entryDy=0;" edge="1" parent="1" source="exYCUITcQJXmySzrB93R-1" target="exYCUITcQJXmySzrB93R-2">
          <mxGeometry relative="1" as="geometry" />
        </mxCell>
        <mxCell id="exYCUITcQJXmySzrB93R-33" value="publishes selfies" style="edgeLabel;html=1;align=center;verticalAlign=middle;resizable=0;points=[];" vertex="1" connectable="0" parent="exYCUITcQJXmySzrB93R-32">
          <mxGeometry x="-0.01" relative="1" as="geometry">
            <mxPoint x="1" y="-10" as="offset" />
          </mxGeometry>
        </mxCell>
        <mxCell id="exYCUITcQJXmySzrB93R-1" value="Heroes of Penta&lt;br&gt;Mobile App" style="rounded=0;whiteSpace=wrap;html=1;" vertex="1" parent="1">
          <mxGeometry x="480" y="430" width="120" height="60" as="geometry" />
        </mxCell>
        <mxCell id="exYCUITcQJXmySzrB93R-7" value="" style="edgeStyle=orthogonalEdgeStyle;rounded=0;orthogonalLoop=1;jettySize=auto;html=1;startArrow=none;startFill=0;" edge="1" parent="1" source="exYCUITcQJXmySzrB93R-2" target="exYCUITcQJXmySzrB93R-6">
          <mxGeometry relative="1" as="geometry">
            <Array as="points">
              <mxPoint x="860" y="370" />
            </Array>
          </mxGeometry>
        </mxCell>
        <mxCell id="exYCUITcQJXmySzrB93R-30" value="photos" style="edgeLabel;html=1;align=center;verticalAlign=middle;resizable=0;points=[];" vertex="1" connectable="0" parent="exYCUITcQJXmySzrB93R-7">
          <mxGeometry x="0.36" y="4" relative="1" as="geometry">
            <mxPoint x="4" y="-6" as="offset" />
          </mxGeometry>
        </mxCell>
        <mxCell id="exYCUITcQJXmySzrB93R-9" value="" style="edgeStyle=orthogonalEdgeStyle;rounded=0;orthogonalLoop=1;jettySize=auto;html=1;startArrow=classic;startFill=1;exitX=1;exitY=0.75;exitDx=0;exitDy=0;" edge="1" parent="1" source="exYCUITcQJXmySzrB93R-2" target="exYCUITcQJXmySzrB93R-8">
          <mxGeometry relative="1" as="geometry">
            <Array as="points">
              <mxPoint x="1020" y="475" />
            </Array>
          </mxGeometry>
        </mxCell>
        <mxCell id="exYCUITcQJXmySzrB93R-20" value="Accounts&lt;br&gt;Dispositions" style="edgeLabel;html=1;align=center;verticalAlign=middle;resizable=0;points=[];" vertex="1" connectable="0" parent="exYCUITcQJXmySzrB93R-9">
          <mxGeometry x="-0.125" y="-1" relative="1" as="geometry">
            <mxPoint x="-10" y="19" as="offset" />
          </mxGeometry>
        </mxCell>
        <mxCell id="exYCUITcQJXmySzrB93R-21" style="edgeStyle=orthogonalEdgeStyle;rounded=0;orthogonalLoop=1;jettySize=auto;html=1;entryX=1;entryY=0.5;entryDx=0;entryDy=0;" edge="1" parent="1" source="exYCUITcQJXmySzrB93R-2" target="exYCUITcQJXmySzrB93R-4">
          <mxGeometry relative="1" as="geometry">
            <Array as="points">
              <mxPoint x="830" y="370" />
            </Array>
          </mxGeometry>
        </mxCell>
        <mxCell id="exYCUITcQJXmySzrB93R-23" value="publishes to" style="edgeLabel;html=1;align=center;verticalAlign=middle;resizable=0;points=[];" vertex="1" connectable="0" parent="exYCUITcQJXmySzrB93R-21">
          <mxGeometry x="0.3647" relative="1" as="geometry">
            <mxPoint x="-4" y="-10" as="offset" />
          </mxGeometry>
        </mxCell>
        <mxCell id="exYCUITcQJXmySzrB93R-34" style="edgeStyle=orthogonalEdgeStyle;rounded=0;orthogonalLoop=1;jettySize=auto;html=1;exitX=0;exitY=0.75;exitDx=0;exitDy=0;entryX=1;entryY=0.75;entryDx=0;entryDy=0;" edge="1" parent="1" source="exYCUITcQJXmySzrB93R-2" target="exYCUITcQJXmySzrB93R-1">
          <mxGeometry relative="1" as="geometry" />
        </mxCell>
        <mxCell id="exYCUITcQJXmySzrB93R-35" value="hints at heroic disposition" style="edgeLabel;html=1;align=center;verticalAlign=middle;resizable=0;points=[];" vertex="1" connectable="0" parent="exYCUITcQJXmySzrB93R-34">
          <mxGeometry relative="1" as="geometry">
            <mxPoint y="-10" as="offset" />
          </mxGeometry>
        </mxCell>
        <mxCell id="exYCUITcQJXmySzrB93R-2" value="Heroes of Penta&lt;br&gt;Server" style="rounded=0;whiteSpace=wrap;html=1;" vertex="1" parent="1">
          <mxGeometry x="800" y="430" width="120" height="60" as="geometry" />
        </mxCell>
        <mxCell id="exYCUITcQJXmySzrB93R-4" value="TikTok" style="rounded=0;whiteSpace=wrap;html=1;" vertex="1" parent="1">
          <mxGeometry x="640" y="340" width="120" height="60" as="geometry" />
        </mxCell>
        <mxCell id="exYCUITcQJXmySzrB93R-31" style="edgeStyle=orthogonalEdgeStyle;rounded=0;orthogonalLoop=1;jettySize=auto;html=1;entryX=1;entryY=0.25;entryDx=0;entryDy=0;" edge="1" parent="1" source="exYCUITcQJXmySzrB93R-6" target="exYCUITcQJXmySzrB93R-2">
          <mxGeometry relative="1" as="geometry">
            <Array as="points">
              <mxPoint x="1020" y="445" />
            </Array>
          </mxGeometry>
        </mxCell>
        <mxCell id="exYCUITcQJXmySzrB93R-36" value="dispositions" style="edgeLabel;html=1;align=center;verticalAlign=middle;resizable=0;points=[];" vertex="1" connectable="0" parent="exYCUITcQJXmySzrB93R-31">
          <mxGeometry x="0.0125" y="3" relative="1" as="geometry">
            <mxPoint x="-17" y="-14" as="offset" />
          </mxGeometry>
        </mxCell>
        <mxCell id="exYCUITcQJXmySzrB93R-6" value="OpenAI" style="rounded=0;whiteSpace=wrap;html=1;" vertex="1" parent="1">
          <mxGeometry x="960" y="340" width="120" height="60" as="geometry" />
        </mxCell>
        <mxCell id="exYCUITcQJXmySzrB93R-8" value="Database" style="rounded=0;whiteSpace=wrap;html=1;" vertex="1" parent="1">
          <mxGeometry x="960" y="520" width="120" height="60" as="geometry" />
        </mxCell>
        <mxCell id="exYCUITcQJXmySzrB93R-19" style="edgeStyle=orthogonalEdgeStyle;rounded=0;orthogonalLoop=1;jettySize=auto;html=1;entryX=0.5;entryY=1;entryDx=0;entryDy=0;" edge="1" parent="1" source="exYCUITcQJXmySzrB93R-10" target="exYCUITcQJXmySzrB93R-1">
          <mxGeometry relative="1" as="geometry" />
        </mxCell>
        <mxCell id="exYCUITcQJXmySzrB93R-26" value="reads Info" style="edgeLabel;html=1;align=center;verticalAlign=middle;resizable=0;points=[];" vertex="1" connectable="0" parent="exYCUITcQJXmySzrB93R-19">
          <mxGeometry x="-0.4308" y="1" relative="1" as="geometry">
            <mxPoint x="11" y="-11" as="offset" />
          </mxGeometry>
        </mxCell>
        <mxCell id="exYCUITcQJXmySzrB93R-10" value="NFT" style="rounded=0;whiteSpace=wrap;html=1;" vertex="1" parent="1">
          <mxGeometry x="640" y="600" width="120" height="60" as="geometry" />
        </mxCell>
        <mxCell id="exYCUITcQJXmySzrB93R-15" value="" style="edgeStyle=orthogonalEdgeStyle;rounded=0;orthogonalLoop=1;jettySize=auto;html=1;" edge="1" parent="1" source="exYCUITcQJXmySzrB93R-12" target="exYCUITcQJXmySzrB93R-14">
          <mxGeometry relative="1" as="geometry" />
        </mxCell>
        <mxCell id="exYCUITcQJXmySzrB93R-43" value="links account to wallet" style="edgeLabel;html=1;align=center;verticalAlign=middle;resizable=0;points=[];" vertex="1" connectable="0" parent="exYCUITcQJXmySzrB93R-15">
          <mxGeometry x="-0.01" y="-2" relative="1" as="geometry">
            <mxPoint y="-13" as="offset" />
          </mxGeometry>
        </mxCell>
        <mxCell id="exYCUITcQJXmySzrB93R-12" value="WalletConnect" style="rounded=0;whiteSpace=wrap;html=1;" vertex="1" parent="1">
          <mxGeometry x="480" y="670" width="120" height="60" as="geometry" />
        </mxCell>
        <mxCell id="exYCUITcQJXmySzrB93R-28" style="edgeStyle=orthogonalEdgeStyle;rounded=0;orthogonalLoop=1;jettySize=auto;html=1;" edge="1" parent="1" source="exYCUITcQJXmySzrB93R-14">
          <mxGeometry relative="1" as="geometry">
            <mxPoint x="890" y="490" as="targetPoint" />
            <Array as="points">
              <mxPoint x="890" y="490" />
            </Array>
          </mxGeometry>
        </mxCell>
        <mxCell id="exYCUITcQJXmySzrB93R-44" value="gets wallet&lt;br&gt;of account" style="edgeLabel;html=1;align=center;verticalAlign=middle;resizable=0;points=[];" vertex="1" connectable="0" parent="exYCUITcQJXmySzrB93R-28">
          <mxGeometry x="-0.0556" y="1" relative="1" as="geometry">
            <mxPoint as="offset" />
          </mxGeometry>
        </mxCell>
        <mxCell id="exYCUITcQJXmySzrB93R-14" value="AccountRegister" style="rounded=0;whiteSpace=wrap;html=1;" vertex="1" parent="1">
          <mxGeometry x="800" y="670" width="120" height="60" as="geometry" />
        </mxCell>
        <mxCell id="exYCUITcQJXmySzrB93R-37" style="edgeStyle=orthogonalEdgeStyle;rounded=0;orthogonalLoop=1;jettySize=auto;html=1;entryX=0.25;entryY=1;entryDx=0;entryDy=0;" edge="1" parent="1" source="exYCUITcQJXmySzrB93R-16" target="exYCUITcQJXmySzrB93R-2">
          <mxGeometry relative="1" as="geometry" />
        </mxCell>
        <mxCell id="exYCUITcQJXmySzrB93R-49" value="static data" style="edgeLabel;html=1;align=center;verticalAlign=middle;resizable=0;points=[];" vertex="1" connectable="0" parent="exYCUITcQJXmySzrB93R-37">
          <mxGeometry x="-0.5385" y="8" relative="1" as="geometry">
            <mxPoint x="7" y="-2" as="offset" />
          </mxGeometry>
        </mxCell>
        <mxCell id="exYCUITcQJXmySzrB93R-38" style="edgeStyle=orthogonalEdgeStyle;rounded=0;orthogonalLoop=1;jettySize=auto;html=1;" edge="1" parent="1" source="exYCUITcQJXmySzrB93R-16">
          <mxGeometry relative="1" as="geometry">
            <mxPoint x="570" y="490" as="targetPoint" />
            <Array as="points">
              <mxPoint x="570" y="550" />
              <mxPoint x="570" y="490" />
            </Array>
          </mxGeometry>
        </mxCell>
        <mxCell id="exYCUITcQJXmySzrB93R-51" value="static data" style="edgeLabel;html=1;align=center;verticalAlign=middle;resizable=0;points=[];" vertex="1" connectable="0" parent="exYCUITcQJXmySzrB93R-38">
          <mxGeometry x="-0.4923" y="-1" relative="1" as="geometry">
            <mxPoint y="-9" as="offset" />
          </mxGeometry>
        </mxCell>
        <mxCell id="exYCUITcQJXmySzrB93R-16" value="IPFS" style="whiteSpace=wrap;html=1;rounded=0;" vertex="1" parent="1">
          <mxGeometry x="640" y="520" width="120" height="60" as="geometry" />
        </mxCell>
        <mxCell id="exYCUITcQJXmySzrB93R-48" style="edgeStyle=orthogonalEdgeStyle;rounded=0;orthogonalLoop=1;jettySize=auto;html=1;exitX=0.5;exitY=1;exitDx=0;exitDy=0;entryX=1;entryY=0.5;entryDx=0;entryDy=0;" edge="1" parent="1" source="exYCUITcQJXmySzrB93R-2" target="exYCUITcQJXmySzrB93R-10">
          <mxGeometry relative="1" as="geometry" />
        </mxCell>
        <mxCell id="exYCUITcQJXmySzrB93R-52" value="grants XP" style="edgeLabel;html=1;align=center;verticalAlign=middle;resizable=0;points=[];" vertex="1" connectable="0" parent="exYCUITcQJXmySzrB93R-48">
          <mxGeometry x="0.6" y="-1" relative="1" as="geometry">
            <mxPoint y="-9" as="offset" />
          </mxGeometry>
        </mxCell>
      </root>
    </mxGraphModel>
  </diagram>
</mxfile>
